<svg width="683" height="525" viewBox="0 0 683 525" fill="none" xmlns="http://www.w3.org/2000/svg">
<path d="M328.941 1.40376C297.075 5.53709 266.408 13.5371 240.941 24.3371C233.208 27.6704 225.608 31.9371 224.008 33.6704C218.941 39.2704 220.408 45.9371 227.341 48.7371C230.808 50.2038 232.808 49.6704 247.075 43.8038C272.675 33.1371 299.341 25.8038 329.608 21.2704C351.208 18.0704 404.275 18.0704 425.341 21.2704C513.741 34.7371 580.541 73.0038 620.941 133.27C630.275 147.27 643.608 175.537 649.341 193.537C671.341 261.937 664.941 339.804 630.675 421.137L624.675 435.537H328.941C48.4079 435.537 33.0746 435.404 32.4079 433.137C31.2079 429.137 19.6079 371.937 19.6079 370.337C19.6079 369.404 22.1412 363.004 25.2079 356.07L30.8079 343.537H57.8746C83.2079 343.537 85.0746 343.404 87.6079 340.87C91.2079 337.27 91.0746 330.07 87.4746 326.737C84.9412 324.47 82.0079 324.204 54.1412 323.804C29.6079 323.537 23.0746 323.804 20.0079 325.27C17.0746 326.87 14.5412 331.004 8.40789 344.737C4.14123 354.337 0.407892 364.737 0.00789181 367.804C-0.525442 373.804 26.1412 506.204 29.0746 511.937C29.8746 513.537 31.8746 516.337 33.4746 517.937C40.0079 525.27 26.9412 524.87 251.341 524.87C451.075 524.87 459.341 524.737 461.341 522.47C464.541 518.87 464.275 511.137 460.808 508.07C458.008 505.67 452.275 505.537 252.541 504.87L47.0746 504.204L42.8079 484.204C40.5412 473.137 38.4079 462.204 37.8746 459.804L36.9412 455.537H325.608C484.408 455.537 614.275 455.937 614.275 456.337C614.275 457.67 601.341 480.47 593.341 493.137L586.141 504.737L541.341 505.137L496.675 505.537L493.341 509.404C489.741 513.537 490.008 518.204 493.875 522.47C495.875 524.737 500.008 524.87 543.475 524.87C588.275 524.87 591.208 524.737 595.208 522.204C608.408 514.204 643.208 449.004 659.608 401.537C694.008 301.804 688.808 210.337 644.541 133.137C605.075 64.2038 529.741 18.6038 428.941 2.87042C409.875 -0.196241 348.408 -0.996241 328.941 1.40376Z" fill="#D90429"/>
<path d="M181.341 59.0037C171.608 66.3371 153.608 84.4704 145.608 95.0037C141.608 100.337 134.408 111.137 129.608 119.004C122.808 130.47 120.941 134.604 120.941 138.87C120.941 148.737 126.008 153.537 140.541 157.537C141.475 157.804 142.141 162.604 142.541 170.47C143.208 191.004 149.875 200.337 168.408 206.737C182.008 211.537 217.208 221.804 262.941 234.204C284.941 240.204 303.208 245.404 303.475 245.67C303.875 246.07 302.408 249.67 300.408 253.937C284.008 287.27 258.275 309.27 223.341 319.67C214.408 322.337 209.741 322.737 168.541 323.404L123.341 324.204L120.808 327.404C117.475 331.404 117.608 335.67 121.075 340.07L124.008 343.67L169.475 343.27C221.208 342.604 226.541 341.804 249.741 330.87C266.408 323.137 276.941 315.67 289.741 303.004C303.208 289.404 307.875 282.47 325.075 250.204C337.475 226.87 338.941 223.404 339.341 215.937C339.608 211.537 339.208 205.537 338.275 202.87C336.408 197.137 328.808 188.204 323.475 185.537C320.408 183.804 290.541 175.937 170.275 144.604C156.008 140.87 143.875 137.537 143.341 137.004C142.008 135.937 155.475 114.47 164.408 103.404C168.275 98.4704 176.408 90.0704 182.408 84.7371C200.541 68.4704 200.941 68.0704 200.941 63.9371C200.941 59.1371 196.008 54.2037 191.341 54.2037C189.341 54.2037 184.941 56.3371 181.341 59.0037ZM238.008 182.87C280.808 194.07 313.741 203.27 315.608 204.737C320.141 207.937 320.675 215.004 316.941 222.204C315.208 225.537 313.475 227.537 312.408 227.137C311.475 226.737 296.941 222.737 280.141 218.204C238.141 206.87 183.208 191.004 173.875 187.537C164.808 184.204 162.275 180.337 162.275 170.204C162.275 166.604 162.541 163.537 162.941 163.537C163.341 163.537 197.208 172.204 238.008 182.87Z" fill="#D90429"/>
<path d="M399.474 235.004C385.874 239.137 372.008 253.004 368.541 265.804L367.074 271.537H359.474C346.541 271.537 340.941 274.87 340.941 282.47C340.941 289.004 343.874 290.87 355.741 291.537L366.674 292.204L368.408 298.07C374.141 317.537 393.874 331.537 415.608 331.537C437.341 331.537 457.075 317.537 462.808 298.07L464.541 292.204L474.675 291.804C483.741 291.404 485.075 291.004 487.608 287.937C490.675 283.937 490.808 282.337 488.808 277.67C486.808 273.404 484.941 272.737 473.741 271.67L464.675 270.87L462.141 264.204C456.675 249.937 445.075 239.004 431.075 234.87C422.808 232.337 407.608 232.47 399.474 235.004ZM428.274 255.27C438.808 260.47 444.941 270.204 444.941 281.804C444.808 299.27 432.808 311.537 415.608 311.537C398.408 311.537 386.408 299.27 386.274 281.804C386.274 273.404 388.408 267.804 394.141 261.804C402.808 252.47 417.074 249.67 428.274 255.27Z" fill="#D90429"/>
</svg>
