<svg width="2033" height="525" viewBox="0 0 2033 525" fill="none" xmlns="http://www.w3.org/2000/svg">
<path d="M328.941 1.40375C297.075 5.53711 266.408 13.5371 240.941 24.3371C233.208 27.6704 225.608 31.9371 224.008 33.6704C218.941 39.2704 220.408 45.9371 227.341 48.7371C230.808 50.2038 232.808 49.6704 247.075 43.8037C272.675 33.1371 299.341 25.8038 329.608 21.2704C351.208 18.0704 404.275 18.0704 425.341 21.2704C513.741 34.7371 580.541 73.0038 620.941 133.27C630.275 147.27 643.608 175.537 649.341 193.537C671.341 261.937 664.941 339.804 630.675 421.137L624.675 435.537H328.941C48.4079 435.537 33.0746 435.404 32.4079 433.137C31.2079 429.137 19.6079 371.937 19.6079 370.337C19.6079 369.404 22.1412 363.004 25.2079 356.07L30.8079 343.537H57.8746C83.2079 343.537 85.0746 343.404 87.6079 340.87C91.2079 337.27 91.0746 330.07 87.4746 326.737C84.9412 324.47 82.0079 324.204 54.1412 323.804C29.6079 323.537 23.0746 323.804 20.0079 325.27C17.0746 326.87 14.5412 331.004 8.40789 344.737C4.14123 354.337 0.407892 364.737 0.00789181 367.804C-0.525442 373.804 26.1412 506.204 29.0746 511.937C29.8746 513.537 31.8746 516.337 33.4746 517.937C40.0079 525.27 26.9412 524.87 251.341 524.87C451.075 524.87 459.341 524.737 461.341 522.47C464.541 518.87 464.275 511.137 460.808 508.07C458.008 505.67 452.275 505.537 252.541 504.87L47.0746 504.204L42.8079 484.204C40.5412 473.137 38.4079 462.204 37.8746 459.804L36.9412 455.537H325.608C484.408 455.537 614.275 455.937 614.275 456.337C614.275 457.67 601.341 480.47 593.341 493.137L586.141 504.737L541.341 505.137L496.675 505.537L493.341 509.404C489.741 513.537 490.008 518.204 493.875 522.47C495.875 524.737 500.008 524.87 543.475 524.87C588.275 524.87 591.208 524.737 595.208 522.204C608.408 514.204 643.208 449.004 659.608 401.537C694.008 301.804 688.808 210.337 644.541 133.137C605.075 64.2038 529.741 18.6038 428.941 2.87042C409.875 -0.196228 348.408 -0.996216 328.941 1.40375Z" fill="#D90429"/>
<path d="M181.341 59.0037C171.608 66.3371 153.608 84.4704 145.608 95.0037C141.608 100.337 134.408 111.137 129.608 119.004C122.808 130.47 120.941 134.604 120.941 138.87C120.941 148.737 126.008 153.537 140.541 157.537C141.475 157.804 142.141 162.604 142.541 170.47C143.208 191.004 149.875 200.337 168.408 206.737C182.008 211.537 217.208 221.804 262.941 234.204C284.941 240.204 303.208 245.404 303.475 245.67C303.875 246.07 302.408 249.67 300.408 253.937C284.008 287.27 258.275 309.27 223.341 319.67C214.408 322.337 209.741 322.737 168.541 323.404L123.341 324.204L120.808 327.404C117.475 331.404 117.608 335.67 121.075 340.07L124.008 343.67L169.475 343.27C221.208 342.604 226.541 341.804 249.741 330.87C266.408 323.137 276.941 315.67 289.741 303.004C303.208 289.404 307.875 282.47 325.075 250.204C337.475 226.87 338.941 223.404 339.341 215.937C339.608 211.537 339.208 205.537 338.275 202.87C336.408 197.137 328.808 188.204 323.475 185.537C320.408 183.804 290.541 175.937 170.275 144.604C156.008 140.87 143.875 137.537 143.341 137.004C142.008 135.937 155.475 114.47 164.408 103.404C168.275 98.4704 176.408 90.0704 182.408 84.7371C200.541 68.4704 200.941 68.0704 200.941 63.9371C200.941 59.1371 196.008 54.2037 191.341 54.2037C189.341 54.2037 184.941 56.3371 181.341 59.0037ZM238.008 182.87C280.808 194.07 313.741 203.27 315.608 204.737C320.141 207.937 320.675 215.004 316.941 222.204C315.208 225.537 313.475 227.537 312.408 227.137C311.475 226.737 296.941 222.737 280.141 218.204C238.141 206.87 183.208 191.004 173.875 187.537C164.808 184.204 162.275 180.337 162.275 170.204C162.275 166.604 162.541 163.537 162.941 163.537C163.341 163.537 197.208 172.204 238.008 182.87Z" fill="#D90429"/>
<path d="M399.474 235.004C385.874 239.137 372.008 253.004 368.541 265.804L367.074 271.537H359.474C346.541 271.537 340.941 274.87 340.941 282.47C340.941 289.004 343.874 290.87 355.741 291.537L366.674 292.204L368.408 298.07C374.141 317.537 393.874 331.537 415.608 331.537C437.341 331.537 457.075 317.537 462.808 298.07L464.541 292.204L474.674 291.804C483.741 291.404 485.075 291.004 487.608 287.937C490.674 283.937 490.808 282.337 488.808 277.67C486.808 273.404 484.941 272.737 473.741 271.67L464.674 270.87L462.141 264.204C456.674 249.937 445.075 239.004 431.075 234.87C422.808 232.337 407.608 232.47 399.474 235.004ZM428.274 255.27C438.808 260.47 444.941 270.204 444.941 281.804C444.808 299.27 432.808 311.537 415.608 311.537C398.408 311.537 386.408 299.27 386.274 281.804C386.274 273.404 388.408 267.804 394.141 261.804C402.808 252.47 417.075 249.67 428.274 255.27Z" fill="#D90429"/>
<path d="M939.125 268.5C939.125 281.917 937 294.125 932.75 305.125C928.5 316.125 922.5 325.542 914.75 333.375C907 341.208 897.667 347.292 886.75 351.625C875.917 355.875 863.917 358 850.75 358H783.875V178.875H850.75C863.917 178.875 875.917 181.042 886.75 185.375C897.667 189.625 907 195.708 914.75 203.625C922.5 211.458 928.5 220.875 932.75 231.875C937 242.875 939.125 255.083 939.125 268.5ZM914.25 268.5C914.25 257.5 912.75 247.667 909.75 239C906.75 230.333 902.5 223 897 217C891.5 211 884.833 206.417 877 203.25C869.167 200.083 860.417 198.5 850.75 198.5H808.125V338.375H850.75C860.417 338.375 869.167 336.792 877 333.625C884.833 330.458 891.5 325.917 897 320C902.5 314 906.75 306.667 909.75 298C912.75 289.333 914.25 279.5 914.25 268.5ZM987.25 256.75C991.25 248.083 996.167 241.333 1002 236.5C1007.83 231.583 1014.96 229.125 1023.38 229.125C1026.04 229.125 1028.58 229.417 1031 230C1033.5 230.583 1035.71 231.5 1037.63 232.75L1036 249.375C1035.5 251.458 1034.25 252.5 1032.25 252.5C1031.08 252.5 1029.38 252.25 1027.13 251.75C1024.88 251.25 1022.33 251 1019.5 251C1015.5 251 1011.92 251.583 1008.75 252.75C1005.67 253.917 1002.88 255.667 1000.38 258C997.958 260.25 995.75 263.083 993.75 266.5C991.833 269.833 990.083 273.667 988.5 278V358H966.125V231.375H978.875C981.292 231.375 982.958 231.833 983.875 232.75C984.792 233.667 985.417 235.25 985.75 237.5L987.25 256.75ZM1080.69 231.375V358H1058.44V231.375H1080.69ZM1085.44 191.625C1085.44 193.792 1084.98 195.833 1084.06 197.75C1083.23 199.583 1082.06 201.25 1080.56 202.75C1079.15 204.167 1077.44 205.292 1075.44 206.125C1073.52 206.958 1071.48 207.375 1069.31 207.375C1067.15 207.375 1065.11 206.958 1063.19 206.125C1061.36 205.292 1059.73 204.167 1058.31 202.75C1056.9 201.25 1055.77 199.583 1054.94 197.75C1054.11 195.833 1053.69 193.792 1053.69 191.625C1053.69 189.458 1054.11 187.417 1054.94 185.5C1055.77 183.5 1056.9 181.792 1058.31 180.375C1059.73 178.875 1061.36 177.708 1063.19 176.875C1065.11 176.042 1067.15 175.625 1069.31 175.625C1071.48 175.625 1073.52 176.042 1075.44 176.875C1077.44 177.708 1079.15 178.875 1080.56 180.375C1082.06 181.792 1083.23 183.5 1084.06 185.5C1084.98 187.417 1085.44 189.458 1085.44 191.625ZM1225.75 231.375L1174.12 358H1154.12L1102.5 231.375H1120.62C1122.46 231.375 1123.96 231.833 1125.12 232.75C1126.29 233.667 1127.08 234.75 1127.5 236L1159.62 317.5C1160.62 320.583 1161.5 323.583 1162.25 326.5C1163 329.417 1163.71 332.333 1164.37 335.25C1165.04 332.333 1165.75 329.417 1166.5 326.5C1167.25 323.583 1168.16 320.583 1169.25 317.5L1201.75 236C1202.25 234.667 1203.08 233.583 1204.25 232.75C1205.41 231.833 1206.79 231.375 1208.37 231.375H1225.75ZM1327.49 280.875C1327.49 275.708 1326.74 271 1325.24 266.75C1323.82 262.417 1321.69 258.708 1318.86 255.625C1316.11 252.458 1312.74 250.042 1308.74 248.375C1304.74 246.625 1300.19 245.75 1295.11 245.75C1284.44 245.75 1275.99 248.875 1269.74 255.125C1263.57 261.292 1259.74 269.875 1258.24 280.875H1327.49ZM1345.49 340.25C1342.74 343.583 1339.44 346.5 1335.61 349C1331.78 351.417 1327.65 353.417 1323.24 355C1318.9 356.583 1314.4 357.75 1309.74 358.5C1305.07 359.333 1300.44 359.75 1295.86 359.75C1287.11 359.75 1279.03 358.292 1271.61 355.375C1264.28 352.375 1257.9 348.042 1252.49 342.375C1247.15 336.625 1242.99 329.542 1239.99 321.125C1236.99 312.708 1235.49 303.042 1235.49 292.125C1235.49 283.292 1236.82 275.042 1239.49 267.375C1242.24 259.708 1246.15 253.083 1251.24 247.5C1256.32 241.833 1262.53 237.417 1269.86 234.25C1277.19 231 1285.44 229.375 1294.61 229.375C1302.19 229.375 1309.19 230.667 1315.61 233.25C1322.11 235.75 1327.69 239.417 1332.36 244.25C1337.11 249 1340.82 254.917 1343.49 262C1346.15 269 1347.49 277 1347.49 286C1347.49 289.5 1347.11 291.833 1346.36 293C1345.61 294.167 1344.19 294.75 1342.11 294.75H1257.49C1257.74 302.75 1258.82 309.708 1260.74 315.625C1262.74 321.542 1265.49 326.5 1268.99 330.5C1272.49 334.417 1276.65 337.375 1281.49 339.375C1286.32 341.292 1291.74 342.25 1297.74 342.25C1303.32 342.25 1308.11 341.625 1312.11 340.375C1316.19 339.042 1319.69 337.625 1322.61 336.125C1325.53 334.625 1327.94 333.25 1329.86 332C1331.86 330.667 1333.57 330 1334.99 330C1336.82 330 1338.24 330.708 1339.24 332.125L1345.49 340.25ZM1400.65 198.625V261.25H1474.28V281H1400.65V358H1376.4V178.875H1486.78V198.625H1400.65ZM1554.9 229.375C1564.15 229.375 1572.48 230.917 1579.9 234C1587.32 237.083 1593.65 241.458 1598.9 247.125C1604.15 252.792 1608.15 259.667 1610.9 267.75C1613.73 275.75 1615.15 284.708 1615.15 294.625C1615.15 304.625 1613.73 313.625 1610.9 321.625C1608.15 329.625 1604.15 336.458 1598.9 342.125C1593.65 347.792 1587.32 352.167 1579.9 355.25C1572.48 358.25 1564.15 359.75 1554.9 359.75C1545.57 359.75 1537.15 358.25 1529.65 355.25C1522.23 352.167 1515.9 347.792 1510.65 342.125C1505.4 336.458 1501.36 329.625 1498.53 321.625C1495.78 313.625 1494.4 304.625 1494.4 294.625C1494.4 284.708 1495.78 275.75 1498.53 267.75C1501.36 259.667 1505.4 252.792 1510.65 247.125C1515.9 241.458 1522.23 237.083 1529.65 234C1537.15 230.917 1545.57 229.375 1554.9 229.375ZM1554.9 342.375C1567.4 342.375 1576.73 338.208 1582.9 329.875C1589.07 321.458 1592.15 309.75 1592.15 294.75C1592.15 279.667 1589.07 267.917 1582.9 259.5C1576.73 251.083 1567.4 246.875 1554.9 246.875C1548.57 246.875 1543.03 247.958 1538.28 250.125C1533.61 252.292 1529.69 255.417 1526.53 259.5C1523.44 263.583 1521.11 268.625 1519.53 274.625C1518.03 280.542 1517.28 287.25 1517.28 294.75C1517.28 309.75 1520.36 321.458 1526.53 329.875C1532.78 338.208 1542.23 342.375 1554.9 342.375ZM1664.5 256.75C1668.5 248.083 1673.41 241.333 1679.25 236.5C1685.08 231.583 1692.2 229.125 1700.62 229.125C1703.29 229.125 1705.83 229.417 1708.25 230C1710.75 230.583 1712.95 231.5 1714.87 232.75L1713.25 249.375C1712.75 251.458 1711.5 252.5 1709.5 252.5C1708.33 252.5 1706.62 252.25 1704.37 251.75C1702.12 251.25 1699.58 251 1696.75 251C1692.75 251 1689.16 251.583 1686 252.75C1682.91 253.917 1680.12 255.667 1677.62 258C1675.2 260.25 1673 263.083 1671 266.5C1669.08 269.833 1667.33 273.667 1665.75 278V358H1643.37V231.375H1656.12C1658.54 231.375 1660.2 231.833 1661.12 232.75C1662.04 233.667 1662.66 235.25 1663 237.5L1664.5 256.75ZM1817.43 253.875C1816.77 254.792 1816.1 255.5 1815.43 256C1814.77 256.5 1813.85 256.75 1812.68 256.75C1811.43 256.75 1810.06 256.25 1808.56 255.25C1807.06 254.167 1805.18 253 1802.93 251.75C1800.77 250.5 1798.06 249.375 1794.81 248.375C1791.64 247.292 1787.73 246.75 1783.06 246.75C1776.81 246.75 1771.31 247.875 1766.56 250.125C1761.81 252.292 1757.81 255.458 1754.56 259.625C1751.39 263.792 1748.98 268.833 1747.31 274.75C1745.73 280.667 1744.93 287.292 1744.93 294.625C1744.93 302.292 1745.81 309.125 1747.56 315.125C1749.31 321.042 1751.77 326.042 1754.93 330.125C1758.18 334.125 1762.06 337.208 1766.56 339.375C1771.14 341.458 1776.27 342.5 1781.93 342.5C1787.35 342.5 1791.81 341.875 1795.31 340.625C1798.81 339.292 1801.68 337.833 1803.93 336.25C1806.27 334.667 1808.18 333.25 1809.68 332C1811.27 330.667 1812.81 330 1814.31 330C1816.14 330 1817.56 330.708 1818.56 332.125L1824.81 340.25C1822.06 343.667 1818.93 346.583 1815.43 349C1811.93 351.417 1808.14 353.458 1804.06 355.125C1800.06 356.708 1795.85 357.875 1791.43 358.625C1787.02 359.375 1782.52 359.75 1777.93 359.75C1770.02 359.75 1762.64 358.292 1755.81 355.375C1749.06 352.458 1743.18 348.25 1738.18 342.75C1733.18 337.167 1729.27 330.333 1726.43 322.25C1723.6 314.167 1722.18 304.958 1722.18 294.625C1722.18 285.208 1723.48 276.5 1726.06 268.5C1728.73 260.5 1732.56 253.625 1737.56 247.875C1742.64 242.042 1748.85 237.5 1756.18 234.25C1763.6 231 1772.1 229.375 1781.68 229.375C1790.6 229.375 1798.43 230.833 1805.18 233.75C1812.02 236.583 1818.06 240.625 1823.31 245.875L1817.43 253.875ZM1931.25 280.875C1931.25 275.708 1930.5 271 1929 266.75C1927.58 262.417 1925.45 258.708 1922.62 255.625C1919.87 252.458 1916.5 250.042 1912.5 248.375C1908.5 246.625 1903.95 245.75 1898.87 245.75C1888.2 245.75 1879.75 248.875 1873.5 255.125C1867.33 261.292 1863.5 269.875 1862 280.875H1931.25ZM1949.25 340.25C1946.5 343.583 1943.2 346.5 1939.37 349C1935.54 351.417 1931.41 353.417 1927 355C1922.66 356.583 1918.16 357.75 1913.5 358.5C1908.83 359.333 1904.2 359.75 1899.62 359.75C1890.87 359.75 1882.79 358.292 1875.37 355.375C1868.04 352.375 1861.66 348.042 1856.25 342.375C1850.91 336.625 1846.75 329.542 1843.75 321.125C1840.75 312.708 1839.25 303.042 1839.25 292.125C1839.25 283.292 1840.58 275.042 1843.25 267.375C1846 259.708 1849.91 253.083 1855 247.5C1860.08 241.833 1866.29 237.417 1873.62 234.25C1880.95 231 1889.2 229.375 1898.37 229.375C1905.95 229.375 1912.95 230.667 1919.37 233.25C1925.87 235.75 1931.45 239.417 1936.12 244.25C1940.87 249 1944.58 254.917 1947.25 262C1949.91 269 1951.25 277 1951.25 286C1951.25 289.5 1950.87 291.833 1950.12 293C1949.37 294.167 1947.95 294.75 1945.87 294.75H1861.25C1861.5 302.75 1862.58 309.708 1864.5 315.625C1866.5 321.542 1869.25 326.5 1872.75 330.5C1876.25 334.417 1880.41 337.375 1885.25 339.375C1890.08 341.292 1895.5 342.25 1901.5 342.25C1907.08 342.25 1911.87 341.625 1915.87 340.375C1919.95 339.042 1923.45 337.625 1926.37 336.125C1929.29 334.625 1931.7 333.25 1933.62 332C1935.62 330.667 1937.33 330 1938.75 330C1940.58 330 1942 330.708 1943 332.125L1949.25 340.25Z" fill="#D90429"/>
</svg>
